<mxfile host="app.diagrams.net" modified="2022-10-11T21:57:23.959Z" agent="5.0 (Macintosh; Intel Mac OS X 10_15_7) AppleWebKit/605.1.15 (KHTML, like Gecko) Version/15.6.1 Safari/605.1.15" etag="nOkKigIFP3-xg2H8VA8o" version="20.4.0" type="gitlab">
  <diagram id="gJd1Qkqm23LiI_lXcx77" name="Page-1">
    <mxGraphModel dx="946" dy="645" grid="1" gridSize="10" guides="1" tooltips="1" connect="1" arrows="1" fold="1" page="1" pageScale="1" pageWidth="850" pageHeight="1100" math="0" shadow="0">
      <root>
        <mxCell id="0" />
        <mxCell id="1" parent="0" />
        <mxCell id="R2yGDR7ylmhJNTISZ2Fa-15" style="edgeStyle=none;rounded=0;orthogonalLoop=1;jettySize=auto;html=1;exitX=1;exitY=0.5;exitDx=0;exitDy=0;entryX=0;entryY=0.5;entryDx=0;entryDy=0;endArrow=none;endFill=0;" parent="1" source="R2yGDR7ylmhJNTISZ2Fa-1" target="R2yGDR7ylmhJNTISZ2Fa-10" edge="1">
          <mxGeometry relative="1" as="geometry" />
        </mxCell>
        <mxCell id="R2yGDR7ylmhJNTISZ2Fa-1" value="блок" style="whiteSpace=wrap;html=1;aspect=fixed;" parent="1" vertex="1">
          <mxGeometry x="210" y="110" width="60" height="60" as="geometry" />
        </mxCell>
        <mxCell id="R2yGDR7ylmhJNTISZ2Fa-3" value="предмет" style="whiteSpace=wrap;html=1;aspect=fixed;" parent="1" vertex="1">
          <mxGeometry x="460" y="110" width="60" height="60" as="geometry" />
        </mxCell>
        <mxCell id="R2yGDR7ylmhJNTISZ2Fa-16" style="edgeStyle=none;rounded=0;orthogonalLoop=1;jettySize=auto;html=1;exitX=1;exitY=0.5;exitDx=0;exitDy=0;entryX=0;entryY=0.5;entryDx=0;entryDy=0;endArrow=none;endFill=0;" parent="1" source="R2yGDR7ylmhJNTISZ2Fa-4" target="R2yGDR7ylmhJNTISZ2Fa-1" edge="1">
          <mxGeometry relative="1" as="geometry" />
        </mxCell>
        <mxCell id="R2yGDR7ylmhJNTISZ2Fa-4" value="название" style="ellipse;whiteSpace=wrap;html=1;" parent="1" vertex="1">
          <mxGeometry x="40" y="40" width="100" height="40" as="geometry" />
        </mxCell>
        <mxCell id="R2yGDR7ylmhJNTISZ2Fa-17" style="edgeStyle=none;rounded=0;orthogonalLoop=1;jettySize=auto;html=1;exitX=1;exitY=0.5;exitDx=0;exitDy=0;endArrow=none;endFill=0;" parent="1" source="R2yGDR7ylmhJNTISZ2Fa-5" edge="1">
          <mxGeometry relative="1" as="geometry">
            <mxPoint x="210" y="140" as="targetPoint" />
          </mxGeometry>
        </mxCell>
        <mxCell id="R2yGDR7ylmhJNTISZ2Fa-5" value="айди картинки" style="ellipse;whiteSpace=wrap;html=1;" parent="1" vertex="1">
          <mxGeometry x="40" y="90" width="110" height="40" as="geometry" />
        </mxCell>
        <mxCell id="R2yGDR7ylmhJNTISZ2Fa-18" style="edgeStyle=none;rounded=0;orthogonalLoop=1;jettySize=auto;html=1;exitX=1;exitY=0.5;exitDx=0;exitDy=0;endArrow=none;endFill=0;" parent="1" source="R2yGDR7ylmhJNTISZ2Fa-6" edge="1">
          <mxGeometry relative="1" as="geometry">
            <mxPoint x="210" y="140" as="targetPoint" />
          </mxGeometry>
        </mxCell>
        <mxCell id="R2yGDR7ylmhJNTISZ2Fa-6" value="биом обитания" style="ellipse;whiteSpace=wrap;html=1;" parent="1" vertex="1">
          <mxGeometry x="45" y="140" width="110" height="40" as="geometry" />
        </mxCell>
        <mxCell id="R2yGDR7ylmhJNTISZ2Fa-21" style="edgeStyle=none;rounded=0;orthogonalLoop=1;jettySize=auto;html=1;entryX=1;entryY=0.5;entryDx=0;entryDy=0;endArrow=none;endFill=0;exitX=0;exitY=0.5;exitDx=0;exitDy=0;" parent="1" source="R2yGDR7ylmhJNTISZ2Fa-8" target="R2yGDR7ylmhJNTISZ2Fa-3" edge="1">
          <mxGeometry relative="1" as="geometry" />
        </mxCell>
        <mxCell id="R2yGDR7ylmhJNTISZ2Fa-8" value="название" style="ellipse;whiteSpace=wrap;html=1;" parent="1" vertex="1">
          <mxGeometry x="580" y="50" width="90" height="40" as="geometry" />
        </mxCell>
        <mxCell id="R2yGDR7ylmhJNTISZ2Fa-20" style="edgeStyle=none;rounded=0;orthogonalLoop=1;jettySize=auto;html=1;exitX=1;exitY=0.5;exitDx=0;exitDy=0;entryX=0;entryY=0.5;entryDx=0;entryDy=0;endArrow=none;endFill=0;" parent="1" source="R2yGDR7ylmhJNTISZ2Fa-10" target="R2yGDR7ylmhJNTISZ2Fa-3" edge="1">
          <mxGeometry relative="1" as="geometry" />
        </mxCell>
        <mxCell id="R2yGDR7ylmhJNTISZ2Fa-10" value="выпадает" style="rhombus;whiteSpace=wrap;html=1;" parent="1" vertex="1">
          <mxGeometry x="320" y="80" width="80" height="80" as="geometry" />
        </mxCell>
        <mxCell id="R2yGDR7ylmhJNTISZ2Fa-23" style="edgeStyle=none;rounded=0;orthogonalLoop=1;jettySize=auto;html=1;entryX=1;entryY=0.5;entryDx=0;entryDy=0;endArrow=none;endFill=0;" parent="1" source="R2yGDR7ylmhJNTISZ2Fa-22" target="R2yGDR7ylmhJNTISZ2Fa-3" edge="1">
          <mxGeometry relative="1" as="geometry" />
        </mxCell>
        <mxCell id="R2yGDR7ylmhJNTISZ2Fa-22" value="айди картинки" style="ellipse;whiteSpace=wrap;html=1;" parent="1" vertex="1">
          <mxGeometry x="620" y="100" width="100" height="40" as="geometry" />
        </mxCell>
        <mxCell id="R2yGDR7ylmhJNTISZ2Fa-25" style="edgeStyle=none;rounded=0;orthogonalLoop=1;jettySize=auto;html=1;entryX=1;entryY=0.5;entryDx=0;entryDy=0;endArrow=none;endFill=0;exitX=0;exitY=0.5;exitDx=0;exitDy=0;" parent="1" source="R2yGDR7ylmhJNTISZ2Fa-24" target="R2yGDR7ylmhJNTISZ2Fa-3" edge="1">
          <mxGeometry relative="1" as="geometry" />
        </mxCell>
        <mxCell id="R2yGDR7ylmhJNTISZ2Fa-24" value="тип" style="ellipse;whiteSpace=wrap;html=1;" parent="1" vertex="1">
          <mxGeometry x="580" y="140" width="70" height="40" as="geometry" />
        </mxCell>
        <mxCell id="R2yGDR7ylmhJNTISZ2Fa-27" style="edgeStyle=none;rounded=0;orthogonalLoop=1;jettySize=auto;html=1;entryX=1;entryY=0.5;entryDx=0;entryDy=0;endArrow=none;endFill=0;" parent="1" source="R2yGDR7ylmhJNTISZ2Fa-26" target="R2yGDR7ylmhJNTISZ2Fa-3" edge="1">
          <mxGeometry relative="1" as="geometry" />
        </mxCell>
        <mxCell id="R2yGDR7ylmhJNTISZ2Fa-26" value="возможность поставить" style="ellipse;whiteSpace=wrap;html=1;" parent="1" vertex="1">
          <mxGeometry x="600" y="210" width="100" height="50" as="geometry" />
        </mxCell>
      </root>
    </mxGraphModel>
  </diagram>
</mxfile>
